<svg id="add_shopping_cart_black_18dp" xmlns="http://www.w3.org/2000/svg" width="24.562" height="24.562" viewBox="0 0 24.562 24.562">
  <path id="Path_14" data-name="Path 14" d="M0,0H24.562V24.562H0Z" fill="none"/>
  <path id="Path_15" data-name="Path 15" d="M11.721,9.577h2.144V6.361h3.216V4.216H13.866V1H11.721V4.216H8.505V6.361h3.216ZM7.433,19.226a2.144,2.144,0,1,0,2.144,2.144A2.141,2.141,0,0,0,7.433,19.226Zm10.721,0A2.144,2.144,0,1,0,20.3,21.371,2.141,2.141,0,0,0,18.154,19.226ZM8.612,13.866H16.6a2.134,2.134,0,0,0,1.876-1.1l4.138-7.516L20.749,4.216,16.6,11.721H9.073L4.506,2.072H1V4.216H3.144L7,12.354,5.557,14.97a2.148,2.148,0,0,0,1.876,3.184H20.3V16.01H7.433Z" transform="translate(0.474 -1)"/>
</svg>
