<svg id="card_giftcard_black_18dp" xmlns="http://www.w3.org/2000/svg" width="29.5" height="29.5" viewBox="0 0 29.5 29.5">
  <path id="Path_19" data-name="Path 19" d="M0,0H29.5V29.5H0Z" fill="none"/>
  <path id="Path_20" data-name="Path 20" d="M24.125,6.917h-2.68a3.679,3.679,0,0,0-6.539-3.257l-.615.824-.615-.836a3.68,3.68,0,0,0-6.539,3.27H4.458A2.439,2.439,0,0,0,2.012,9.375L2,22.9a2.45,2.45,0,0,0,2.458,2.458H24.125A2.45,2.45,0,0,0,26.583,22.9V9.375A2.45,2.45,0,0,0,24.125,6.917ZM17.979,4.458A1.229,1.229,0,1,1,16.75,5.687,1.233,1.233,0,0,1,17.979,4.458Zm-7.375,0A1.229,1.229,0,1,1,9.375,5.687,1.233,1.233,0,0,1,10.6,4.458ZM24.125,22.9H4.458V20.437H24.125Zm0-6.146H4.458V9.375H10.7L8.146,12.854l1.991,1.438,4.155-5.654,4.155,5.654,1.991-1.438L17.881,9.375h6.244Z" transform="translate(0.458 0.458)"/>
</svg>
