<svg xmlns="http://www.w3.org/2000/svg" width="37.979" height="39.556" viewBox="0 0 37.979 39.556">
  <g id="Group_7" data-name="Group 7" transform="translate(0 0.75)">
    <path id="Path_9" data-name="Path 9" d="M241.328,220.52h6.067l5.2,23.042H275.95a2.616,2.616,0,0,1,1.106.246h0a2.154,2.154,0,0,1,.528.349h0a3.471,3.471,0,0,1,.519.583l.1.142.078.15a2.322,2.322,0,0,1,.258.9l.017.219v.291a4.013,4.013,0,0,1-.065.717l-.043.237a1.685,1.685,0,0,1-.216.57h0a2.266,2.266,0,0,1-.479.56l-.207.175a2.161,2.161,0,0,1-.437.286l-.574.283a1.147,1.147,0,0,1-.387.09H248.5" transform="translate(-241.328 -220.52)" fill="none" stroke="#000" stroke-miterlimit="10" stroke-width="1.5"/>
    <path id="Path_10" data-name="Path 10" d="M293.966,282.35H321.98l-7.468,13.16" transform="translate(-285.553 -272.468)" fill="none" stroke="#000" stroke-miterlimit="10" stroke-width="1.5"/>
    <circle id="Ellipse_6" data-name="Ellipse 6" cx="2.999" cy="2.999" r="2.999" transform="translate(11.367 32.058)" fill="none" stroke="#000" stroke-miterlimit="10" stroke-width="1.5"/>
    <circle id="Ellipse_7" data-name="Ellipse 7" cx="2.999" cy="2.999" r="2.999" transform="translate(27.508 32.058)" fill="none" stroke="#000" stroke-miterlimit="10" stroke-width="1.5"/>
  </g>
</svg>
