<svg id="favorite_border_black_18dp" xmlns="http://www.w3.org/2000/svg" width="27.389" height="27.389" viewBox="0 0 27.389 27.389">
  <path id="Path_12" data-name="Path 12" d="M0,0H27.389V27.389H0Z" fill="none"/>
  <path id="Path_13" data-name="Path 13" d="M18.548,3a6.834,6.834,0,0,0-5.135,2.385A6.834,6.834,0,0,0,8.277,3,6.216,6.216,0,0,0,2,9.277c0,4.314,3.88,7.829,9.757,13.17l1.655,1.495,1.655-1.506c5.877-5.329,9.757-8.844,9.757-13.158A6.216,6.216,0,0,0,18.548,3ZM13.526,20.746l-.114.114-.114-.114C7.866,15.827,4.282,12.575,4.282,9.277A3.9,3.9,0,0,1,8.277,5.282a4.462,4.462,0,0,1,4.074,2.693h2.134a4.433,4.433,0,0,1,4.063-2.693,3.9,3.9,0,0,1,3.994,3.994C22.542,12.575,18.958,15.827,13.526,20.746Z" transform="translate(0.282 0.424)" fill="#ff5858"/>
</svg>
